<?xml version="1.0" encoding="UTF-8" standalone="no"?>
<svg width="621px" height="101px" viewBox="0 0 621 101" version="1.1" xmlns="http://www.w3.org/2000/svg" xmlns:xlink="http://www.w3.org/1999/xlink">
    <!-- Generator: Sketch 43.1 (39012) - http://www.bohemiancoding.com/sketch -->
    <title>logo - sort bg - one line</title>
    <desc>Created with Sketch.</desc>
    <defs></defs>
    <g id="Page-1" stroke="none" stroke-width="1" fill="none" fill-rule="evenodd">
        <g id="A5" transform="translate(-71.000000, -247.000000)">
            <g id="logo---sort-bg---one-line" transform="translate(71.000000, 247.000000)">
                <g id="Group-Copy" fill="#FBD490">
                    <ellipse id="Oval" cx="2.23880597" cy="50.5" rx="2.23880597" ry="28.2205882"></ellipse>
                    <ellipse id="Oval-Copy" cx="97.761194" cy="50.5" rx="2.23880597" ry="28.2205882"></ellipse>
                    <polygon id="Triangle" points="21.641791 99.5147059 19.4029851 62.3823529 23.880597 62.3823529"></polygon>
                    <polygon id="Triangle-Copy-2" points="21.641791 1.48529412 19.4029851 38.6176471 23.880597 38.6176471"></polygon>
                    <polygon id="Triangle-Copy" points="78.358209 101 76.119403 62.3823529 80.5970149 62.3823529"></polygon>
                    <polygon id="Triangle-Copy-3" points="78.358209 -7.10542736e-15 76.119403 38.6176471 80.5970149 38.6176471"></polygon>
                    <rect id="Rectangle" x="19.4029851" y="57.9264706" width="61.1940299" height="4.45588235"></rect>
                    <polygon id="Rectangle-Copy" points="19.4029851 43.0735294 80.5970149 43.0735294 80.5970149 38.6176471 19.4029851 38.6176471"></polygon>
                    <ellipse id="Oval-2" cx="50" cy="38.6176471" rx="29.1044776" ry="1"></ellipse>
                    <ellipse id="Oval-2-Copy" cx="50" cy="43.0735294" rx="30.5970149" ry="1"></ellipse>
                    <ellipse id="Oval-2" cx="50" cy="57.9264706" rx="30.5970149" ry="1"></ellipse>
                    <ellipse id="Oval-2-Copy" cx="50" cy="62.3823529" rx="30.5970149" ry="1"></ellipse>
                </g>
                <path d="M167.041,54.618 L151.078,54.618 L151.078,67.47 C151.078,68.4220048 150.636004,68.9319997 149.752,69 L144.805,69 C143.954996,68.9319997 143.53,68.4220048 143.53,67.47 L143.53,34.575 C143.53,33.5889951 143.631999,33.0875001 143.836,33.0705 C144.040001,33.0534999 144.668995,33.045 145.723,33.045 L149.752,33.045 C150.398003,33.045 150.873998,33.0534999 151.18,33.0705 C151.486002,33.0875001 151.639,33.5889951 151.639,34.575 L151.639,47.172 L167.041,47.172 L167.041,34.575 C167.041,33.5889951 167.0665,33.0875001 167.1175,33.0705 C167.1685,33.0534999 167.703995,33.045 168.724,33.045 L172.753,33.045 C173.399003,33.045 173.891998,33.0534999 174.232,33.0705 C174.572002,33.0875001 174.742,33.5889951 174.742,34.575 L174.742,68.082 C174.742,68.1840005 174.623001,68.3624987 174.385,68.6175 C174.146999,68.8725013 173.977001,69 173.875,69 L167.959,69 C167.856999,69 167.678501,68.8725013 167.4235,68.6175 C167.168499,68.3624987 167.041,68.1840005 167.041,68.082 L167.041,54.618 Z M213.464304,68.745 C213.362304,68.8470005 213.158306,68.9149998 212.852304,68.949 C212.546303,68.9830002 212.342305,69 212.240304,69 L206.885304,69 C206.443302,69 206.111805,68.8810012 205.890804,68.643 C205.669803,68.4049988 205.559304,68.2350005 205.559304,68.133 C205.457304,67.4869968 205.253306,66.8495031 204.947304,66.2205 C204.641303,65.5914969 204.437305,64.9370034 204.335304,64.257 C204.335304,63.848998 204.224805,63.5175013 204.003804,63.2625 C203.782803,63.0074987 203.672304,62.6590022 203.672304,62.217 L190.667304,62.217 C190.225302,63.2370051 189.851306,64.0869966 189.545304,64.767 C189.239303,65.4470034 188.950306,66.3479944 188.678304,67.47 C188.576304,68.5240053 188.448805,69.0425001 188.295804,69.0255 C188.142803,69.0084999 187.573309,69 186.587304,69 L182.099304,69 C181.419301,69 181.079304,68.9150009 181.079304,68.745 C181.079304,68.5749991 181.130304,68.1500034 181.232304,67.47 C181.878307,65.3279893 182.498801,63.058512 183.093804,60.6615 C183.688807,58.264488 184.496299,55.9950107 185.516304,53.853 C186.536309,50.7589845 187.581799,47.5205169 188.652804,44.1375 C189.72381,40.7544831 190.786299,37.4990156 191.840304,34.371 C191.942305,33.7249968 192.095303,33.3595004 192.299304,33.2745 C192.503305,33.1894996 192.945301,33.147 193.625304,33.147 L201.275304,33.147 C201.377305,33.147 201.564303,33.2914986 201.836304,33.5805 C202.108306,33.8695014 202.295304,34.0649995 202.397304,34.167 C202.499305,34.8470034 202.711803,35.5269966 203.034804,36.207 C203.357806,36.8870034 203.570304,37.5499968 203.672304,38.196 C204.692309,41.8340182 205.890797,45.4889816 207.267804,49.161 C208.644811,52.8330184 209.860299,56.5219815 210.914304,60.228 C211.322306,61.622007 211.747302,62.9054941 212.189304,64.0785 C212.631306,65.2515059 212.903304,66.5179932 213.005304,67.878 C213.005304,67.9800005 213.081803,68.1244991 213.234804,68.3115 C213.387805,68.4985009 213.464304,68.6429995 213.464304,68.745 Z M201.275304,54.516 C201.275304,54.2099985 201.054306,53.462006 200.612304,52.272 C200.170302,51.0819941 199.694307,49.790007 199.184304,48.396 C198.674302,47.001993 198.189807,45.6675064 197.730804,44.3925 C197.271802,43.1174936 197.025304,42.2250026 196.991304,41.715 C195.665298,45.9650213 194.322311,50.2319786 192.962304,54.516 C194.526312,54.516 195.954298,54.5414997 197.246304,54.5925 C198.538311,54.6435003 199.881297,54.6180005 201.275304,54.516 Z M240.558608,32.994 C241.578614,32.994 242.530604,33.0024999 243.414608,33.0195 C244.298613,33.0365001 245.250603,33.045 246.270608,33.045 C246.916612,33.045 247.375607,33.1724987 247.647608,33.4275 C247.91961,33.6825013 248.055608,34.1329968 248.055608,34.779 L248.055608,50.997 C248.055608,56.4370272 247.953609,61.9959716 247.749608,67.674 C247.749608,68.3540034 247.724109,68.7449995 247.673108,68.847 C247.622108,68.9490005 247.273612,69 246.627608,69 L241.425608,69 C240.983606,69 240.541611,68.8895011 240.099608,68.6685 C239.657606,68.4474989 239.385609,68.1160022 239.283608,67.674 C237.6856,64.8859861 236.079116,62.1490134 234.464108,59.463 C232.8491,56.7769866 231.191617,54.0230141 229.491608,51.201 C229.049606,50.5549968 228.480112,49.5605067 227.783108,48.2175 C227.086105,46.8744933 226.56761,45.8970031 226.227608,45.285 L226.227608,66.807 C226.227608,67.8610053 226.05761,68.4729992 225.717608,68.643 C225.377607,68.8130009 224.697614,68.898 223.677608,68.898 C222.997605,68.898 222.368611,68.9234997 221.790608,68.9745 C221.212606,69.0255003 220.71961,69.0000005 220.311608,68.898 L219.138608,68.898 C219.036608,68.898 218.985608,68.6770022 218.985608,68.235 L218.985608,34.218 C218.985608,33.5719968 219.036608,33.1980005 219.138608,33.096 C219.240609,32.9939995 219.631605,32.943 220.311608,32.943 L225.564608,32.943 C226.482613,32.9089998 227.060607,33.3339956 227.298608,34.218 C229.440619,37.5160165 231.565598,40.8904827 233.673608,44.3415 C235.781619,47.7925173 237.855598,51.1499837 239.895608,54.414 C239.997609,54.5160005 240.125108,54.7284984 240.278108,55.0515 C240.431109,55.3745016 240.558608,55.5869995 240.660608,55.689 C240.660608,51.9829815 240.643609,48.2090192 240.609608,44.367 C240.575608,40.5249808 240.558608,36.7340187 240.558608,32.994 Z M261.787913,57.066 L261.787913,58.035 C262.739917,60.8230139 264.286902,62.3359988 266.428913,62.574 C267.414918,62.6760005 268.366908,62.8119992 269.284913,62.982 C270.202917,63.1520009 271.188907,63.0160022 272.242913,62.574 C272.888916,62.4719995 273.43291,62.1915023 273.874913,61.7325 C274.316915,61.2734977 274.75891,60.7040034 275.200913,60.024 C275.608915,59.0379951 275.778913,58.247503 275.710913,57.6525 C275.642912,57.057497 275.404915,56.4200034 274.996913,55.74 C274.316909,55.331998 273.670916,54.924002 273.058913,54.516 C272.44691,54.107998 271.817916,53.904 271.171913,53.904 C270.151908,53.8019995 269.352916,53.6745008 268.774913,53.5215 C268.19691,53.3684992 267.414918,53.2410005 266.428913,53.139 C264.388902,53.139 262.416922,52.6970044 260.512913,51.813 C258.778904,51.1669968 257.563416,50.1980065 256.866413,48.906 C256.169409,47.6139935 255.820913,46.169008 255.820913,44.571 C255.718912,41.9189867 256.254407,39.6835091 257.427413,37.8645 C258.600418,36.0454909 260.257902,34.6260051 262.399913,33.606 C264.405923,32.6199951 266.386403,32.1354999 268.341413,32.1525 C270.296422,32.1695001 272.293902,32.381998 274.333913,32.79 C276.339923,33.4700034 277.929407,34.506993 279.102413,35.901 C280.275418,37.295007 281.201909,38.8419915 281.881913,40.542 C281.881913,40.9840022 281.975412,41.4259978 282.162413,41.868 C282.349414,42.3100022 282.442913,42.8539968 282.442913,43.5 C282.442913,43.9420022 282.383413,44.2394992 282.264413,44.3925 C282.145412,44.5455008 281.881915,44.622 281.473913,44.622 L275.557913,44.622 C275.455912,44.213998 275.396413,43.814502 275.379413,43.4235 C275.362413,43.032498 275.302913,42.6160022 275.200913,42.174 C275.030912,41.4259963 274.690915,40.7290032 274.180913,40.083 C273.67091,39.4369968 272.922918,39.0630005 271.936913,38.961 C270.814907,38.8589995 269.667418,38.7655004 268.494413,38.6805 C267.321407,38.5954996 266.054919,39.0459951 264.694913,40.032 C263.640907,40.7120034 263.020414,41.5194953 262.833413,42.4545 C262.646412,43.3895047 262.739911,44.3499951 263.113913,45.336 C263.215913,45.7780022 263.51341,46.2199978 264.006413,46.662 C264.499415,47.1040022 265.085909,47.325 265.765913,47.325 C267.125919,47.5630012 268.485906,47.6989998 269.845913,47.733 C270.831918,47.8350005 271.766908,47.987999 272.650913,48.192 C273.534917,48.396001 274.316909,48.5489995 274.996913,48.651 C277.138923,49.0930022 278.923905,50.0704924 280.351913,51.5835 C281.77992,53.0965076 282.544912,54.9239893 282.646913,57.066 C283.054915,59.1060102 282.935916,60.8314929 282.289913,62.2425 C281.643909,63.6535071 280.640919,65.0389932 279.280913,66.399 C277.342903,68.3030095 274.996926,69.3229993 272.242913,69.459 C269.556899,69.663001 267.193923,69.663001 265.153913,69.459 C262.6719,68.8129968 260.555421,67.8185067 258.804413,66.4755 C257.053404,65.1324933 255.973915,62.8800158 255.565913,59.718 C255.565913,59.6159995 255.531913,59.3865018 255.463913,59.0295 C255.395912,58.6724982 255.361913,58.2730022 255.361913,57.831 C255.361913,57.422998 255.489411,57.1935003 255.744413,57.1425 C255.999414,57.0914997 256.34791,57.066 256.789913,57.066 L261.787913,57.066 Z M314.854521,56.811 C314.412519,57.2530022 314.013023,57.7969968 313.656021,58.443 C313.299019,59.0890032 313.120521,59.9049951 313.120521,60.891 C313.222522,61.9110051 313.265021,63.0074941 313.248021,64.1805 C313.231021,65.3535059 313.222521,66.4329951 313.222521,67.419 L313.222521,68.949 C312.780519,69.0510005 312.202525,69.0765003 311.488521,69.0255 C310.774517,68.9744997 310.094524,68.949 309.448521,68.949 L305.827521,68.949 L305.827521,34.575 C305.827521,33.5889951 305.870021,33.0875001 305.955021,33.0705 C306.040021,33.0534999 306.592516,33.045 307.612521,33.045 L312.967521,33.045 C313.069522,35.5270124 313.095021,38.0004877 313.044021,40.4655 C312.993021,42.9305123 312.967521,45.3869878 312.967521,47.835 C313.375523,47.426998 313.800519,46.9765025 314.242521,46.4835 C314.684523,45.9904975 314.956521,45.5230022 315.058521,45.081 C315.466523,44.4349968 315.985018,43.7720034 316.614021,43.092 C317.243024,42.4119966 317.778519,41.7320034 318.220521,41.052 C319.206526,40.0319949 320.090517,38.8165071 320.872521,37.4055 C321.654525,35.9944929 322.555516,34.7620053 323.575521,33.708 C323.677522,33.6059995 323.924019,33.4700009 324.315021,33.3 C324.706023,33.1299992 325.122519,33.045 325.564521,33.045 L333.010521,33.045 C332.568519,33.7250034 332.143523,34.3794969 331.735521,35.0085 C331.327519,35.6375031 330.919523,36.155998 330.511521,36.564 C330.069519,37.2440034 329.585024,37.8134977 329.058021,38.2725 C328.531018,38.7315023 328.063523,39.2839968 327.655521,39.93 C326.771517,41.2220065 325.904525,42.4969937 325.054521,43.755 C324.612519,44.4350034 324.145023,45.0129976 323.652021,45.489 C323.159019,45.9650024 322.708523,46.5259968 322.300521,47.172 C321.858519,47.8520034 321.391023,48.4299976 320.898021,48.906 C320.405019,49.3820024 319.954523,49.9429968 319.546521,50.589 C319.648522,50.6910005 319.79302,50.945998 319.980021,51.354 C320.167022,51.762002 320.311521,52.0169995 320.413521,52.119 C322.419531,54.6010124 324.366012,57.1594868 326.253021,59.7945 C328.14003,62.4295132 329.950512,64.9029884 331.684521,67.215 C331.786522,67.3170005 331.99052,67.5039986 332.296521,67.776 C332.602523,68.0480014 332.704522,68.2349995 332.602521,68.337 C332.500521,68.4390005 332.279523,68.5749991 331.939521,68.745 C331.599519,68.9150009 331.225523,69 330.817521,69 L325.564521,69 C325.122519,69 324.638024,68.8555014 324.111021,68.5665 C323.584018,68.2774986 323.269522,67.9120022 323.167521,67.47 C322.113516,65.9059922 320.932028,64.4100071 319.623021,62.982 C318.314014,61.5539929 317.149526,60.041008 316.129521,58.443 C316.027521,58.3409995 315.815023,58.0690022 315.492021,57.627 C315.169019,57.1849978 314.956522,56.9130005 314.854521,56.811 Z M339.041825,32.994 L354.392825,32.994 C355.956833,32.994 357.512318,33.2319976 359.059325,33.708 C360.606333,34.1840024 361.90682,34.9319949 362.960825,35.952 C364.524833,37.550008 365.527823,39.3859896 365.969825,41.46 C366.411827,43.5340104 366.309828,45.6419893 365.663825,47.784 C365.221823,49.382008 364.601329,50.7079947 363.802325,51.762 C363.003321,52.8160053 361.923832,53.8359951 360.563825,54.822 C360.461825,54.822 359.96883,54.9494987 359.084825,55.2045 C358.200821,55.4595013 357.418829,55.587 356.738825,55.587 C356.806826,56.9130066 356.883325,57.8819969 356.968325,58.494 C357.053326,59.1060031 357.299823,59.7689964 357.707825,60.483 C357.877826,60.891002 358.226323,61.2819981 358.753325,61.656 C359.280328,62.0300019 359.798823,62.2679995 360.308825,62.37 C361.022829,62.574001 361.87282,62.6335004 362.858825,62.5485 C363.84483,62.4634996 364.86482,62.421 365.918825,62.421 C366.020826,63.1010034 366.046325,64.0869935 365.995325,65.379 C365.944325,66.6710065 365.918825,67.6399968 365.918825,68.286 C365.918825,68.3880005 365.833826,68.5579988 365.663825,68.796 C365.493824,69.0340012 365.357826,69.153 365.255825,69.153 C364.23582,69.153 362.952333,69.1614999 361.405325,69.1785 C359.858318,69.1955001 358.57483,69.1190008 357.554825,68.949 C356.160818,68.540998 354.94533,68.0820025 353.908325,67.572 C352.87132,67.0619975 352.148827,66.2970051 351.740825,65.277 C351.332823,64.3929956 351.043826,63.6705028 350.873825,63.1095 C350.703824,62.5484972 350.533826,61.8090046 350.363825,60.891 C350.363825,60.7889995 350.304326,60.5170022 350.185325,60.075 C350.066325,59.6329978 350.006825,59.3610005 350.006825,59.259 C349.802824,58.6809971 349.700825,58.1455025 349.700825,57.6525 C349.700825,57.1594975 349.632826,56.6580026 349.496825,56.148 C348.816822,56.2500005 348.391826,56.2755003 348.221825,56.2245 C348.051824,56.1734997 347.47383,56.148 346.487825,56.148 L346.487825,67.623 C346.487825,68.3030034 346.411326,68.6939995 346.258325,68.796 C346.105324,68.8980005 345.824827,68.949 345.416825,68.949 L340.265825,68.949 C339.585822,68.949 339.211826,68.8385011 339.143825,68.6175 C339.075825,68.3964989 339.041825,68.0650022 339.041825,67.623 L339.041825,32.994 Z M346.487825,48.702 L354.392825,48.702 C355.650832,48.702 356.704821,48.2600044 357.554825,47.376 C358.54083,46.7299968 359.033825,45.7780063 359.033825,44.52 C359.033825,43.2619937 358.54083,42.1230051 357.554825,41.103 C357.112823,40.694998 356.577328,40.3550014 355.948325,40.083 C355.319322,39.8109986 354.800827,39.675 354.392825,39.675 L346.487825,39.675 L346.487825,48.702 Z M380.263129,33.402 L380.263129,49.824 C380.33113,55.1960269 380.28013,60.5679731 380.110129,65.94 L380.110129,67.98 C380.110129,68.4220022 380.08463,68.6854996 380.033629,68.7705 C379.982629,68.8555004 379.753131,68.898 379.345129,68.898 L373.684129,68.898 C373.582129,68.898 373.412131,68.8555004 373.174129,68.7705 C372.936128,68.6854996 372.817129,68.4220022 372.817129,67.98 L372.817129,35.136 C372.817129,34.1159949 372.885129,33.4955011 373.021129,33.2745 C373.15713,33.0534989 373.735124,32.943 374.755129,32.943 L379.039129,32.943 C379.14113,32.943 379.345128,33.0194992 379.651129,33.1725 C379.957131,33.3255008 380.161129,33.402 380.263129,33.402 Z M393.995434,57.066 L393.995434,58.035 C394.947438,60.8230139 396.494423,62.3359988 398.636434,62.574 C399.622439,62.6760005 400.574429,62.8119992 401.492434,62.982 C402.410438,63.1520009 403.396428,63.0160022 404.450434,62.574 C405.096437,62.4719995 405.640431,62.1915023 406.082434,61.7325 C406.524436,61.2734977 406.966431,60.7040034 407.408434,60.024 C407.816436,59.0379951 407.986434,58.247503 407.918434,57.6525 C407.850433,57.057497 407.612436,56.4200034 407.204434,55.74 C406.52443,55.331998 405.878437,54.924002 405.266434,54.516 C404.654431,54.107998 404.025437,53.904 403.379434,53.904 C402.359429,53.8019995 401.560437,53.6745008 400.982434,53.5215 C400.404431,53.3684992 399.622439,53.2410005 398.636434,53.139 C396.596423,53.139 394.624443,52.6970044 392.720434,51.813 C390.986425,51.1669968 389.770937,50.1980065 389.073934,48.906 C388.37693,47.6139935 388.028434,46.169008 388.028434,44.571 C387.926433,41.9189867 388.461928,39.6835091 389.634934,37.8645 C390.80794,36.0454909 392.465423,34.6260051 394.607434,33.606 C396.613444,32.6199951 398.593924,32.1354999 400.548934,32.1525 C402.503943,32.1695001 404.501423,32.381998 406.541434,32.79 C408.547444,33.4700034 410.136928,34.506993 411.309934,35.901 C412.48294,37.295007 413.40943,38.8419915 414.089434,40.542 C414.089434,40.9840022 414.182933,41.4259978 414.369934,41.868 C414.556935,42.3100022 414.650434,42.8539968 414.650434,43.5 C414.650434,43.9420022 414.590934,44.2394992 414.471934,44.3925 C414.352933,44.5455008 414.089436,44.622 413.681434,44.622 L407.765434,44.622 C407.663433,44.213998 407.603934,43.814502 407.586934,43.4235 C407.569934,43.032498 407.510434,42.6160022 407.408434,42.174 C407.238433,41.4259963 406.898436,40.7290032 406.388434,40.083 C405.878431,39.4369968 405.130439,39.0630005 404.144434,38.961 C403.022428,38.8589995 401.87494,38.7655004 400.701934,38.6805 C399.528928,38.5954996 398.26244,39.0459951 396.902434,40.032 C395.848428,40.7120034 395.227935,41.5194953 395.040934,42.4545 C394.853933,43.3895047 394.947432,44.3499951 395.321434,45.336 C395.423434,45.7780022 395.720931,46.2199978 396.213934,46.662 C396.706936,47.1040022 397.29343,47.325 397.973434,47.325 C399.33344,47.5630012 400.693427,47.6989998 402.053434,47.733 C403.039439,47.8350005 403.974429,47.987999 404.858434,48.192 C405.742438,48.396001 406.52443,48.5489995 407.204434,48.651 C409.346444,49.0930022 411.131427,50.0704924 412.559434,51.5835 C413.987441,53.0965076 414.752433,54.9239893 414.854434,57.066 C415.262436,59.1060102 415.143437,60.8314929 414.497434,62.2425 C413.85143,63.6535071 412.84844,65.0389932 411.488434,66.399 C409.550424,68.3030095 407.204447,69.3229993 404.450434,69.459 C401.76442,69.663001 399.401444,69.663001 397.361434,69.459 C394.879421,68.8129968 392.762942,67.8185067 391.011934,66.4755 C389.260925,65.1324933 388.181436,62.8800158 387.773434,59.718 C387.773434,59.6159995 387.739434,59.3865018 387.671434,59.0295 C387.603433,58.6724982 387.569434,58.2730022 387.569434,57.831 C387.569434,57.422998 387.696932,57.1935003 387.951934,57.1425 C388.206935,57.0914997 388.555431,57.066 388.997434,57.066 L393.995434,57.066 Z M439.857738,40.44 L439.857738,42.735 C439.857738,44.4690087 439.891738,46.2709907 439.959738,48.141 C440.027738,50.0110094 440.061738,51.7959915 440.061738,53.496 L439.857738,68.388 L439.857738,68.847 C439.517736,68.9150003 439.007741,68.9574999 438.327738,68.9745 C437.647734,68.9915001 436.942242,69 436.211238,69 C435.480234,69 434.774741,68.9915001 434.094738,68.9745 C433.414734,68.9574999 432.921739,68.9150003 432.615738,68.847 C432.513737,64.1549765 432.488238,59.4545235 432.539238,54.7455 C432.590238,50.0364765 432.615738,45.2680241 432.615738,40.44 L423.129738,40.44 C422.109733,40.44 421.540238,40.4060003 421.421238,40.338 C421.302237,40.2699997 421.242738,39.7260051 421.242738,38.706 C421.140737,37.7199951 421.115238,36.8360039 421.166238,36.054 C421.217238,35.2719961 421.242738,34.3710051 421.242738,33.351 L450.057738,33.351 C450.703741,33.351 451.103237,33.3934996 451.256238,33.4785 C451.409239,33.5635004 451.485738,34.0989951 451.485738,35.085 C451.485738,35.7650034 451.511238,36.4534965 451.562238,37.1505 C451.613238,37.8475035 451.587738,38.5189968 451.485738,39.165 C451.485738,39.8450034 451.409239,40.2274996 451.256238,40.3125 C451.103237,40.3975004 450.703741,40.44 450.057738,40.44 L439.857738,40.44 Z M473.174042,69.51 C471.440033,69.51 469.79105,69.3995011 468.227042,69.1785 C466.663034,68.9574989 465.201049,68.3370051 463.841042,67.317 C462.107033,66.3309951 460.577049,65.039008 459.251042,63.441 C457.925035,61.842992 456.939045,60.0240102 456.293042,57.984 C455.273037,55.8419893 454.763042,53.4960128 454.763042,50.946 C454.763042,48.3959873 455.273037,45.8800124 456.293042,43.398 C456.701044,42.3779949 457.253539,41.366505 457.950542,40.3635 C458.647546,39.360495 459.336039,38.5190034 460.016042,37.839 C461.376049,36.8189949 462.625536,35.8500046 463.764542,34.932 C464.903548,34.0139954 466.510032,33.2490031 468.584042,32.637 C469.672048,32.3649986 470.598538,32.1780005 471.363542,32.076 C472.128546,31.9739995 473.021037,31.923 474.041042,31.923 C476.047052,31.9910003 477.951033,32.3819964 479.753042,33.096 C481.555051,33.8100036 483.178535,34.770494 484.623542,35.9775 C486.068549,37.184506 487.318037,38.5954919 488.372042,40.2105 C489.426047,41.8255081 490.20804,43.5509908 490.718042,45.387 C491.126044,47.4270102 491.279043,49.3564909 491.177042,51.1755 C491.075042,52.9945091 490.701045,54.90699 490.055042,56.913 C489.035037,59.7350141 487.76005,62.0724907 486.230042,63.9255 C484.700034,65.7785093 482.337058,67.2999941 479.141042,68.49 C477.169032,69.1020031 475.180052,69.4419997 473.174042,69.51 Z M484.190042,51.507 L484.190042,50.436 C484.088042,49.4159949 483.858544,48.2855062 483.501542,47.0445 C483.14454,45.8034938 482.473047,44.6730051 481.487042,43.653 C480.093035,41.9529915 478.478051,40.7630034 476.642042,40.083 C474.806033,39.4029966 472.817053,39.3859968 470.675042,40.032 C469.655037,40.1340005 468.737046,40.4484974 467.921042,40.9755 C467.105038,41.5025026 466.374045,42.0889968 465.728042,42.735 C464.334035,44.333008 463.390545,45.930992 462.897542,47.529 C462.40454,49.127008 462.294041,51.1159881 462.566042,53.496 C462.668043,55.2300087 463.186537,56.7769932 464.121542,58.137 C465.056547,59.4970068 466.323034,60.6699951 467.921042,61.656 C468.567045,61.7580005 469.272538,61.910999 470.037542,62.115 C470.802546,62.319001 471.525039,62.421 472.205042,62.421 C473.565049,62.5230005 474.848536,62.370002 476.055542,61.962 C477.262548,61.553998 478.376037,60.9930036 479.396042,60.279 C480.654048,59.3949956 481.742037,58.1455081 482.660042,56.5305 C483.578047,54.9154919 484.088042,53.2410087 484.190042,51.507 Z M497.871346,33.198 L498.738346,33.198 C499.55435,33.1639998 501.220334,33.1300002 503.736346,33.096 C506.252359,33.0619998 508.870333,33.045 511.590346,33.045 C514.31036,33.045 516.766835,33.0619998 518.959846,33.096 C521.152857,33.1300002 522.368345,33.1639998 522.606346,33.198 C522.708347,33.6400022 522.750846,34.6089925 522.733846,36.105 C522.716846,37.6010075 522.708346,38.8589949 522.708346,39.879 L505.317346,39.879 C505.215346,40.8990051 505.164346,42.1484926 505.164346,43.6275 C505.164346,45.1065074 505.215346,46.3389951 505.317346,47.325 L508.989346,47.325 C510.417353,47.325 511.658341,47.2740005 512.712346,47.172 L516.052846,47.172 C517.259852,47.172 518.390341,47.2229995 519.444346,47.325 L519.444346,54.006 C519.342346,54.1080005 519.087348,54.1335003 518.679346,54.0825 C518.271344,54.0314997 518.016347,54.006 517.914346,54.006 L505.317346,54.006 L505.317346,67.827 C505.317346,68.5070034 505.164348,68.8639998 504.858346,68.898 C504.552345,68.9320002 504.07635,68.949 503.430346,68.949 L499.197346,68.949 C498.755344,68.949 498.449347,68.9150003 498.279346,68.847 C498.109345,68.7789997 497.973347,68.5240022 497.871346,68.082 L497.871346,59.718 C497.871346,57.0659867 497.854346,54.1845156 497.820346,51.0735 C497.786346,47.9624844 497.769346,45.0640134 497.769346,42.378 L497.769346,38.094 C497.769346,37.0059946 497.786346,35.9775048 497.820346,35.0085 C497.854346,34.0394952 497.871346,33.4360012 497.871346,33.198 Z M529.65765,33.198 L530.52465,33.198 C531.340655,33.1639998 533.006638,33.1300002 535.52265,33.096 C538.038663,33.0619998 540.656637,33.045 543.37665,33.045 C546.096664,33.045 548.55314,33.0619998 550.74615,33.096 C552.939161,33.1300002 554.154649,33.1639998 554.39265,33.198 C554.494651,33.6400022 554.537151,34.6089925 554.52015,36.105 C554.50315,37.6010075 554.49465,38.8589949 554.49465,39.879 L537.10365,39.879 C537.00165,40.8990051 536.95065,42.1484926 536.95065,43.6275 C536.95065,45.1065074 537.00165,46.3389951 537.10365,47.325 L540.77565,47.325 C542.203658,47.325 543.444645,47.2740005 544.49865,47.172 L547.83915,47.172 C549.046157,47.172 550.176645,47.2229995 551.23065,47.325 L551.23065,54.006 C551.12865,54.1080005 550.873653,54.1335003 550.46565,54.0825 C550.057648,54.0314997 549.802651,54.006 549.70065,54.006 L537.10365,54.006 L537.10365,67.827 C537.10365,68.5070034 536.950652,68.8639998 536.64465,68.898 C536.338649,68.9320002 535.862654,68.949 535.21665,68.949 L530.98365,68.949 C530.541648,68.949 530.235651,68.9150003 530.06565,68.847 C529.89565,68.7789997 529.759651,68.5240022 529.65765,68.082 L529.65765,59.718 C529.65765,57.0659867 529.640651,54.1845156 529.60665,51.0735 C529.57265,47.9624844 529.55565,45.0640134 529.55565,42.378 L529.55565,38.094 C529.55565,37.0059946 529.57265,35.9775048 529.60665,35.0085 C529.640651,34.0394952 529.65765,33.4360012 529.65765,33.198 Z M561.341955,33.453 C561.545956,33.248999 561.851953,33.1215003 562.259955,33.0705 C562.667957,33.0194997 563.092952,32.994 563.534955,32.994 L584.444955,32.994 C584.852957,33.0960005 585.082454,33.2404991 585.133455,33.4275 C585.184455,33.6145009 585.209955,33.911998 585.209955,34.32 L585.209955,39.216 C585.209955,39.6580022 585.141955,39.879 585.005955,39.879 L569.195955,39.879 C569.093954,40.5590034 569.042955,41.6809922 569.042955,43.245 L569.042955,47.121 L581.588955,47.121 C581.724955,47.529002 581.809955,48.0559968 581.843955,48.702 C581.877955,49.3480032 581.894955,50.0279964 581.894955,50.742 C581.894955,51.4560036 581.860955,52.1444967 581.792955,52.8075 C581.724954,53.4705033 581.656955,53.9889981 581.588955,54.363 C581.486954,54.4650005 581.291456,54.4905003 581.002455,54.4395 C580.713453,54.3884997 580.364957,54.363 579.956955,54.363 L568.787955,54.363 L568.787955,61.911 L585.209955,61.911 C585.413956,62.9310051 585.507455,64.0954935 585.490455,65.4045 C585.473455,66.7135065 585.379956,67.8949947 585.209955,68.949 C585.107954,68.949 584.937956,68.9574999 584.699955,68.9745 C584.461953,68.9915001 584.291955,69 584.189955,69 C576.913918,69 569.654991,68.9830002 562.412955,68.949 C561.732951,68.949 561.384455,68.8640008 561.367455,68.694 C561.350455,68.5239992 561.341955,68.0990034 561.341955,67.419 C561.341955,62.7269765 561.367454,58.1710221 561.418455,53.751 C561.469455,49.3309779 561.443955,44.9280219 561.341955,40.542 L561.341955,33.453 Z M593.128259,32.994 L608.479259,32.994 C610.043267,32.994 611.598751,33.2319976 613.145759,33.708 C614.692767,34.1840024 615.993254,34.9319949 617.047259,35.952 C618.611267,37.550008 619.614257,39.3859896 620.056259,41.46 C620.498261,43.5340104 620.396262,45.6419893 619.750259,47.784 C619.308257,49.382008 618.687763,50.7079947 617.888759,51.762 C617.089755,52.8160053 616.010266,53.8359951 614.650259,54.822 C614.548258,54.822 614.055263,54.9494987 613.171259,55.2045 C612.287254,55.4595013 611.505262,55.587 610.825259,55.587 C610.893259,56.9130066 610.969758,57.8819969 611.054759,58.494 C611.139759,59.1060031 611.386257,59.7689964 611.794259,60.483 C611.96426,60.891002 612.312756,61.2819981 612.839759,61.656 C613.366762,62.0300019 613.885256,62.2679995 614.395259,62.37 C615.109262,62.574001 615.959254,62.6335004 616.945259,62.5485 C617.931264,62.4634996 618.951254,62.421 620.005259,62.421 C620.107259,63.1010034 620.132759,64.0869935 620.081759,65.379 C620.030759,66.6710065 620.005259,67.6399968 620.005259,68.286 C620.005259,68.3880005 619.92026,68.5579988 619.750259,68.796 C619.580258,69.0340012 619.444259,69.153 619.342259,69.153 C618.322254,69.153 617.038767,69.1614999 615.491759,69.1785 C613.944751,69.1955001 612.661264,69.1190008 611.641259,68.949 C610.247252,68.540998 609.031764,68.0820025 607.994759,67.572 C606.957754,67.0619975 606.235261,66.2970051 605.827259,65.277 C605.419257,64.3929956 605.13026,63.6705028 604.960259,63.1095 C604.790258,62.5484972 604.62026,61.8090046 604.450259,60.891 C604.450259,60.7889995 604.390759,60.5170022 604.271759,60.075 C604.152758,59.6329978 604.093259,59.3610005 604.093259,59.259 C603.889258,58.6809971 603.787259,58.1455025 603.787259,57.6525 C603.787259,57.1594975 603.71926,56.6580026 603.583259,56.148 C602.903255,56.2500005 602.47826,56.2755003 602.308259,56.2245 C602.138258,56.1734997 601.560264,56.148 600.574259,56.148 L600.574259,67.623 C600.574259,68.3030034 600.49776,68.6939995 600.344759,68.796 C600.191758,68.8980005 599.911261,68.949 599.503259,68.949 L594.352259,68.949 C593.672255,68.949 593.298259,68.8385011 593.230259,68.6175 C593.162259,68.3964989 593.128259,68.0650022 593.128259,67.623 L593.128259,32.994 Z M600.574259,48.702 L608.479259,48.702 C609.737265,48.702 610.791255,48.2600044 611.641259,47.376 C612.627264,46.7299968 613.120259,45.7780063 613.120259,44.52 C613.120259,43.2619937 612.627264,42.1230051 611.641259,41.103 C611.199257,40.694998 610.663762,40.3550014 610.034759,40.083 C609.405756,39.8109986 608.887261,39.675 608.479259,39.675 L600.574259,39.675 L600.574259,48.702 Z" id="HANS-KRISTOFFER" fill="#FFFFFF"></path>
            </g>
        </g>
    </g>
</svg>